<?xml version="1.0" encoding="utf-8"?>
<svg xmlns="http://www.w3.org/2000/svg" width="330" height="330" class="segno"><path transform="scale(10)" class="qrline" stroke="#000" d="M0 0.5h7m3 0h2m4 0h3m1 0h3m3 0h7m-33 1h1m5 0h1m1 0h2m1 0h4m1 0h1m1 0h1m1 0h1m1 0h1m1 0h1m1 0h1m5 0h1m-33 1h1m1 0h3m1 0h1m1 0h3m1 0h2m1 0h1m3 0h1m1 0h1m4 0h1m1 0h3m1 0h1m-33 1h1m1 0h3m1 0h1m1 0h2m7 0h1m2 0h2m4 0h1m1 0h3m1 0h1m-33 1h1m1 0h3m1 0h1m6 0h1m1 0h1m1 0h5m1 0h1m2 0h1m1 0h3m1 0h1m-33 1h1m5 0h1m3 0h2m4 0h2m4 0h1m3 0h1m5 0h1m-33 1h7m1 0h1m1 0h1m1 0h1m1 0h1m1 0h1m1 0h1m1 0h1m1 0h1m1 0h1m1 0h7m-25 1h1m1 0h1m3 0h1m3 0h1m1 0h1m1 0h2m-24 1h1m5 0h1m1 0h2m2 0h2m1 0h3m1 0h2m1 0h5m2 0h3m-31 1h4m4 0h2m3 0h3m1 0h2m2 0h2m4 0h3m-31 1h3m3 0h3m1 0h3m2 0h1m4 0h2m2 0h1m3 0h1m1 0h1m-31 1h1m2 0h2m2 0h1m2 0h1m3 0h1m3 0h1m1 0h1m1 0h2m1 0h1m1 0h6m-33 1h1m4 0h2m2 0h8m1 0h3m3 0h1m1 0h2m4 0h1m-32 1h1m6 0h3m1 0h1m1 0h1m1 0h8m1 0h3m1 0h1m1 0h2m-33 1h2m1 0h4m2 0h1m2 0h3m2 0h1m2 0h3m1 0h3m1 0h2m1 0h1m-32 1h1m1 0h3m2 0h2m1 0h2m3 0h1m2 0h1m1 0h1m1 0h1m1 0h2m1 0h2m1 0h1m1 0h1m-33 1h1m2 0h1m1 0h2m2 0h1m3 0h1m2 0h2m2 0h1m1 0h1m1 0h2m1 0h3m2 0h1m-31 1h2m3 0h1m7 0h1m1 0h4m2 0h1m2 0h1m2 0h4m-32 1h1m1 0h1m1 0h5m1 0h1m1 0h4m2 0h1m1 0h1m1 0h1m1 0h3m1 0h4m-33 1h1m1 0h4m1 0h1m1 0h1m1 0h3m1 0h1m3 0h2m5 0h1m1 0h3m-31 1h2m4 0h2m2 0h1m2 0h1m1 0h2m1 0h2m2 0h2m1 0h1m2 0h2m-30 1h1m1 0h2m1 0h1m2 0h3m1 0h3m1 0h1m1 0h2m1 0h3m3 0h2m1 0h1m-31 1h1m3 0h4m3 0h1m1 0h1m1 0h2m3 0h2m3 0h1m2 0h4m-32 1h1m2 0h1m3 0h3m1 0h1m2 0h1m4 0h1m2 0h1m4 0h2m1 0h3m-33 1h4m2 0h2m2 0h3m2 0h1m3 0h2m3 0h5m3 0h1m-25 1h1m1 0h2m1 0h1m1 0h1m3 0h3m2 0h1m3 0h1m1 0h3m-33 1h7m3 0h1m2 0h4m1 0h1m1 0h1m1 0h3m1 0h1m1 0h1m1 0h1m-31 1h1m5 0h1m2 0h1m2 0h1m1 0h2m2 0h1m1 0h1m2 0h2m3 0h4m-32 1h1m1 0h3m1 0h1m2 0h1m1 0h1m6 0h3m3 0h6m1 0h2m-33 1h1m1 0h3m1 0h1m9 0h1m1 0h3m2 0h3m1 0h6m-33 1h1m1 0h3m1 0h1m5 0h1m1 0h1m1 0h2m1 0h1m2 0h4m1 0h2m2 0h2m-33 1h1m5 0h1m2 0h1m2 0h2m1 0h2m1 0h1m1 0h1m1 0h1m2 0h4m1 0h1m-31 1h7m1 0h3m2 0h1m3 0h3m2 0h1m1 0h2m1 0h1m3 0h1"/></svg>
